<svg width="81" height="70" viewBox="0 0 81 70" fill="none" xmlns="http://www.w3.org/2000/svg">
<path fill-rule="evenodd" clip-rule="evenodd" d="M30.3697 7.32777C40.1127 -2.44257 55.9091 -2.44261 65.652 7.32777C74.4956 16.1963 75.3117 30.0662 68.1008 39.8581L81 52.7936L75.7075 58.1011L62.8083 45.1656C61.2168 46.3442 59.5171 47.3087 57.7487 48.0596C57.092 53.4013 54.7195 58.5715 50.6303 62.6722C40.8873 72.4426 25.0907 72.4426 15.3477 62.6722C6.50413 53.8037 5.6881 39.9337 12.8989 30.1418L0 17.2063L5.2923 11.8988L18.1914 24.8344C19.7829 23.6558 21.4825 22.691 23.2508 21.9401C23.9076 16.5984 26.2806 11.4284 30.3697 7.32777ZM23.6021 30.2083C22.5519 30.8808 21.5578 31.6774 20.6402 32.5975C13.8202 39.4368 13.8202 50.5254 20.6402 57.3647C27.4603 64.204 38.5177 64.204 45.3378 57.3647C47.4663 55.2302 48.9304 52.6819 49.7303 49.978C42.7853 50.4564 35.6788 48.0339 30.3697 42.7099C26.822 39.1522 24.5662 34.7896 23.6021 30.2083ZM45.3378 32.5975C41.3541 28.6026 35.9248 26.941 30.7385 27.6131C31.2707 31.1957 32.9118 34.6447 35.662 37.4027C39.6456 41.3974 45.0749 43.0586 50.261 42.3866C49.7287 38.8041 48.0879 35.3554 45.3378 32.5975ZM60.3598 12.6352C53.5397 5.79591 42.4821 5.79591 35.662 12.6352C33.5336 14.7696 32.0694 17.3178 31.2694 20.0217C38.2145 19.5432 45.3212 21.9659 50.6303 27.2901C54.1779 30.8476 56.4332 35.2101 57.3974 39.7912C58.4477 39.1186 59.4422 38.3228 60.3598 37.4027C67.1798 30.5634 67.1798 19.4746 60.3598 12.6352Z" fill="currentColor"/>
</svg>
